<svg width="126" height="34" viewBox="0 0 126 34" fill="none" xmlns="http://www.w3.org/2000/svg">
<path d="M1.08 26V22.64L9.6 12.56H1.44V9.2H14.16V12.56L5.64 22.64H14.4V26H1.08ZM17.6288 26V9.2H30.1088V12.56H21.2288V15.8H28.1888V19.04H21.2288V22.64H30.3488V26H17.6288ZM33.5897 26V9.2H36.8297L44.9897 19.64V9.2H48.5897V26H45.3497L37.1897 15.56V26H33.5897Z" fill="white"/>
<g clip-path="url(#clip0_49_7155)">
<rect x="59" width="67" height="34" rx="6" fill="#B0F305"/>
<path d="M71.16 26V9.2H78.24C80.016 9.2 81.456 9.728 82.56 10.784C83.68 11.84 84.24 13.192 84.24 14.84C84.24 16.488 83.68 17.84 82.56 18.896C81.456 19.952 80.016 20.48 78.24 20.48H74.76V26H71.16ZM74.76 17.12H78.12C78.84 17.12 79.416 16.912 79.848 16.496C80.296 16.064 80.52 15.512 80.52 14.84C80.52 14.168 80.296 13.624 79.848 13.208C79.416 12.776 78.84 12.56 78.12 12.56H74.76V17.12ZM90.4828 18.92H94.5628L92.5708 13.4H92.4748L90.4828 18.92ZM84.0028 26L90.4828 9.2H94.5628L101.043 26H97.2028L95.7628 22.16H89.2828L87.8428 26H84.0028ZM105.474 26V20L99.1144 9.2H103.314L107.226 16.4H107.322L111.234 9.2H115.434L109.074 20V26H105.474Z" fill="#0D0D0D"/>
<circle cx="59.5" cy="16.5" r="7.5" fill="#0D0D0D"/>
<path opacity="0.5" d="M49.525 16.5C49.235 16.5 48.9986 16.2648 49.0131 15.9752C49.1415 13.4069 50.2091 10.9678 52.0231 9.12802C53.9602 7.16333 56.5928 6.04004 59.3516 6.00105C62.1104 5.96206 64.7737 7.01051 66.7656 8.91969C68.7575 10.8289 69.9178 13.4453 69.9958 16.2033C70.0738 18.9613 69.0631 21.6391 67.1822 23.6578C65.3014 25.6764 62.7016 26.8736 59.945 26.9906C57.1884 27.1075 54.4965 26.1347 52.4515 24.2826C50.5365 22.5482 49.3328 20.1733 49.0595 17.6164C49.0287 17.3281 49.2514 17.0799 49.5409 17.0635C49.8304 17.0471 50.0769 17.2689 50.1093 17.557C50.366 19.8383 51.4459 21.9552 53.1564 23.5043C54.9969 25.1713 57.4196 26.0467 59.9005 25.9415C62.3814 25.8363 64.7213 24.7588 66.414 22.942C68.1068 21.1252 69.0164 18.7151 68.9462 16.233C68.8761 13.7508 67.8317 11.396 66.039 9.67772C64.2463 7.95946 61.8494 7.01586 59.3665 7.05094C56.8835 7.08603 54.5142 8.09699 52.7708 9.86522C51.1506 11.5085 50.192 13.683 50.0646 15.9752C50.0485 16.2647 49.8149 16.5 49.525 16.5Z" fill="#0D0D0D"/>
<path opacity="0.5" d="M135.475 16.5C135.765 16.5 136.001 16.2648 135.987 15.9752C135.858 13.4069 134.791 10.9678 132.977 9.12802C131.04 7.16333 128.407 6.04004 125.648 6.00105C122.89 5.96206 120.226 7.01051 118.234 8.91969C116.243 10.8289 115.082 13.4453 115.004 16.2033C114.926 18.9613 115.937 21.6391 117.818 23.6578C119.699 25.6764 122.298 26.8736 125.055 26.9906C127.812 27.1075 130.503 26.1347 132.548 24.2826C134.463 22.5482 135.667 20.1733 135.94 17.6164C135.971 17.3281 135.749 17.0799 135.459 17.0635C135.17 17.0471 134.923 17.2689 134.891 17.557C134.634 19.8383 133.554 21.9552 131.844 23.5043C130.003 25.1713 127.58 26.0467 125.1 25.9415C122.619 25.8363 120.279 24.7588 118.586 22.942C116.893 21.1252 115.984 18.7151 116.054 16.233C116.124 13.7508 117.168 11.396 118.961 9.67772C120.754 7.95946 123.151 7.01586 125.634 7.05094C128.116 7.08603 130.486 8.09699 132.229 9.86522C133.849 11.5085 134.808 13.683 134.935 15.9752C134.952 16.2647 135.185 16.5 135.475 16.5Z" fill="#0D0D0D"/>
<circle cx="125.5" cy="16.5" r="7.5" fill="#0D0D0D"/>
</g>
<defs>
<clipPath id="clip0_49_7155">
<rect x="59" width="67" height="34" rx="6" fill="white"/>
</clipPath>
</defs>
</svg>
